<svg id="Warstwa_1" data-name="Warstwa 1" xmlns="http://www.w3.org/2000/svg" viewBox="0 0 40 40"><defs><style>.cls-1{fill:#b56565;}</style></defs><title>book</title><path class="cls-1" d="M33.28,10.27V8.58l-.69-.16a19.5,19.5,0,0,0-5.14-.35,10.65,10.65,0,0,0-7.5,3.21,10.65,10.65,0,0,0-7.5-3.21,19.51,19.51,0,0,0-5.14.35l-.69.16v1.69h-3V33H36.25V10.27ZM5.36,31.2V12.07H6.58L6.47,29.63l1-.09c.07,0,5.83-.51,9.75,1.67Zm13.57-1.05a15,15,0,0,0-6.67-2.27A26.16,26.16,0,0,0,9,27.68H8.28l.11-17.64c2-.31,7.93-.86,10.64,3ZM20.83,13c2.71-3.83,8.62-3.29,10.64-3l.11,17.64a26.36,26.36,0,0,0-4,.19,15,15,0,0,0-6.67,2.27ZM34.45,31.2H22.66c3.91-2.16,9.68-1.67,9.75-1.67l1,.09-.11-17.56h1.16Z"/></svg>