<svg id="Warstwa_1" data-name="Warstwa 1" xmlns="http://www.w3.org/2000/svg" viewBox="0 0 40 40"><defs><style>.cls-1{fill:#b56565;}</style></defs><title>building</title><rect class="cls-1" x="5.29" y="32.41" width="29.12" height="2.27"/><polygon class="cls-1" points="31.33 29.18 31.33 31.45 8.37 31.45 8.37 29.18 9.72 29.18 9.72 15.17 12.93 15.17 12.93 29.18 15.41 29.18 15.41 15.17 18.61 15.17 18.61 29.18 21.39 29.18 21.39 15.17 24.59 15.17 24.59 29.18 27.25 29.18 27.25 15.17 30.46 15.17 30.46 29.18 31.33 29.18"/><polygon class="cls-1" points="35 12.71 31.33 12.71 31.33 14.48 8.37 14.48 8.37 12.71 4.69 12.71 19.85 4.88 35 12.71"/></svg>