<svg id="Warstwa_1" data-name="Warstwa 1" xmlns="http://www.w3.org/2000/svg" viewBox="0 0 40 40"><defs><style>.cls-1{fill:#b56565;}</style></defs><title>trolley</title><path class="cls-1" d="M13.54,29.89a3.17,3.17,0,1,0,3.17,3.17A3.18,3.18,0,0,0,13.54,29.89Zm0,4.26a1.08,1.08,0,1,1,1.08-1.08A1.09,1.09,0,0,1,13.54,34.15Z"/><path class="cls-1" d="M27.82,36.24A3.17,3.17,0,1,1,31,33.06,3.18,3.18,0,0,1,27.82,36.24Zm0-4.26a1.08,1.08,0,1,0,1.08,1.08A1.09,1.09,0,0,0,27.82,32Z"/><path class="cls-1" d="M36.8,9.78A1,1,0,0,0,36,9.35L9.94,7.54l-.17-1A3.35,3.35,0,0,0,6.49,3.65H3A1,1,0,0,0,3,5.74H6.49A1.3,1.3,0,0,1,7.7,6.9v0l3,17.24L9.44,25.86c-.33.38-1.24,1.56-.74,2.68A2.25,2.25,0,0,0,11,29.66H30.7a1,1,0,0,0,0-2.09H10.78a2.32,2.32,0,0,1,.24-.34l0-.06,1.3-1.68h20.1a1,1,0,0,0,1-.79l3.48-14A1,1,0,0,0,36.8,9.78ZM34,14l-7.25-.3V10.8l7.91.55Zm-1.12,4.51H26.73V15.78l6.74.28Zm-13.73-3,5.51.23v2.81H19.14ZM17,15.38v3.13H11.87l-.59-3.37ZM12.24,20.6H17v2.8H12.73Zm12.41-7-5.51-.23v-3.1l5.51.38ZM17,10.13v3.16L10.91,13l-.6-3.37ZM19.14,20.6h5.51v2.8H19.14Zm12.52,2.8H26.73V20.6h5.62Z"/></svg>