<svg id="Warstwa_1" data-name="Warstwa 1" xmlns="http://www.w3.org/2000/svg" viewBox="0 0 30 30"><defs><style>.cls-1{fill:#b56565;}</style></defs><title>book</title><path class="cls-1" d="M24.82,8V6.79l-.51-.12a14.32,14.32,0,0,0-3.77-.26A7.82,7.82,0,0,0,15,8.77,7.82,7.82,0,0,0,9.51,6.41a14.32,14.32,0,0,0-3.78.26l-.51.12V8H3V24.71H27V8ZM4.32,23.39v-14h.9L5.14,22.23l.73-.07c.05,0,4.28-.37,7.16,1.22Zm10-.77A11,11,0,0,0,9.38,21,19.21,19.21,0,0,0,7,20.81H6.46l.08-13c1.48-.23,5.82-.63,7.81,2.19Zm1.4-12.57c2-2.81,6.33-2.42,7.81-2.19l.08,13a19.36,19.36,0,0,0-2.92.14,11,11,0,0,0-4.9,1.66Zm10,13.34H17c2.87-1.59,7.11-1.23,7.16-1.22l.73.07L24.83,9.34h.85Z"/></svg>