<svg id="Warstwa_1" data-name="Warstwa 1" xmlns="http://www.w3.org/2000/svg" viewBox="0 0 30 30"><defs><style>.cls-1{fill:#b56565;}</style></defs><title>calendar</title><rect class="cls-1" x="19.93" y="2.62" width="2.68" height="6.46" rx="1.34" ry="1.34"/><rect class="cls-1" x="7.47" y="2.62" width="2.68" height="6.46" rx="1.34" ry="1.34"/><path class="cls-1" d="M24,5.91h-.86v1.5a2.14,2.14,0,0,1-1.91,2.31,2.14,2.14,0,0,1-1.92-2.31V5.91H10.72v1.5A2.14,2.14,0,0,1,8.8,9.71,2.14,2.14,0,0,1,6.89,7.41V5.91H6A3.24,3.24,0,0,0,3.13,9.4V23.51A3.24,3.24,0,0,0,6,27H24a3.24,3.24,0,0,0,2.9-3.49V9.4A3.24,3.24,0,0,0,24,5.91Zm1.44,17.6A1.62,1.62,0,0,1,24,25.25H6a1.62,1.62,0,0,1-1.44-1.74V12.29H25.49Z"/><rect class="cls-1" x="6.88" y="13.88" width="3.03" height="2.04"/><rect class="cls-1" x="11.31" y="13.88" width="3.03" height="2.04"/><rect class="cls-1" x="15.74" y="13.88" width="3.03" height="2.04"/><rect class="cls-1" x="20.16" y="13.88" width="3.03" height="2.04"/><rect class="cls-1" x="6.88" y="17.6" width="3.03" height="1.95"/><rect class="cls-1" x="11.31" y="17.6" width="3.03" height="1.95"/><rect class="cls-1" x="15.74" y="17.6" width="3.03" height="1.95"/><rect class="cls-1" x="20.16" y="17.6" width="3.03" height="1.95"/><rect class="cls-1" x="6.88" y="21.22" width="3.03" height="2.03"/><rect class="cls-1" x="11.31" y="21.22" width="3.03" height="2.03"/><rect class="cls-1" x="15.74" y="21.22" width="3.03" height="2.03"/><rect class="cls-1" x="20.16" y="21.22" width="3.03" height="2.03"/></svg>