<svg id="Warstwa_1" data-name="Warstwa 1" xmlns="http://www.w3.org/2000/svg" viewBox="0 0 30 30"><defs><style>.cls-1{fill:#b56565;}</style></defs><title>grades</title><path class="cls-1" d="M18.84,2.82H8.49V5.7H5.61v22H22.12V24.83H25V9Zm.86,2.93,2.37,2.37H19.69Zm1,20.49H7.08V7.17H8.49V24.83H20.65Zm2.88-2.88H10V4.28h8.27v5.3h5.31Z"/><path class="cls-1" d="M19.93,17.26a2.87,2.87,0,0,1-.29,1.31,2.9,2.9,0,0,1-.81,1,3.69,3.69,0,0,1-1.2.62,4.94,4.94,0,0,1-1.47.21,7.35,7.35,0,0,1-1.34-.12,5.23,5.23,0,0,1-1.12-.32L14,18.37a6.77,6.77,0,0,0,1,.29,5.17,5.17,0,0,0,1.06.11,2.34,2.34,0,0,0,1.36-.35,1.19,1.19,0,0,0,.51-1,1.16,1.16,0,0,0-.61-1.11,3.37,3.37,0,0,0-1.61-.33H14.11v-5.5h5.28v1.63H16.12v2.27h.31a4.83,4.83,0,0,1,1.39.19,3.42,3.42,0,0,1,1.12.56,2.53,2.53,0,0,1,.74.91A2.85,2.85,0,0,1,19.93,17.26Z"/></svg>