<svg id="Warstwa_1" data-name="Warstwa 1" xmlns="http://www.w3.org/2000/svg" viewBox="0 0 30 30"><defs><style>.cls-1{fill:#b56565;}</style></defs><title>human</title><path class="cls-1" d="M15.4,14.62a5.93,5.93,0,1,1,5.93-5.93A5.93,5.93,0,0,1,15.4,14.62Zm0-10.13a4.21,4.21,0,1,0,4.21,4.21A4.21,4.21,0,0,0,15.4,4.48Z"/><path class="cls-1" d="M19.87,16.51c1.53,1.46,2.3,4.2,2.4,8.44H8.53c.09-3.35.64-5.77,1.69-7.39a5.55,5.55,0,0,1,.81-1,7.55,7.55,0,0,0,8.84-.07m-.12-2.2a5.84,5.84,0,0,1-8.63.08,6.89,6.89,0,0,0-2.33,2.24c-1.34,2.05-2,5.08-2,9.26v.78H24v-.78c0-6.26-1.31-10-4.24-11.57Z"/></svg>