<svg id="Warstwa_1" data-name="Warstwa 1" xmlns="http://www.w3.org/2000/svg" viewBox="0 0 28 28"><defs><style>.cls-1{fill:#b56565;}</style></defs><title>studies</title><path class="cls-1" d="M28,10.92l-4.45,2.83v-1l-.89-.38-8-3.4L14,10.45l6.91,3,.94.4h0v1l-8,5.06-8-5.65v7c0,.5.59,1.37,2.25,2.21A13.45,13.45,0,0,0,14,24.7a12.72,12.72,0,0,0,5.6-1.33l.75,1.49A14.43,14.43,0,0,1,14,26.36a15.15,15.15,0,0,1-6.6-1.49c-2-1-3.16-2.36-3.16-3.69V13L0,10.06,14.07,1.12Z"/><path class="cls-1" d="M20.55,23.13l.89-3.25h0a1.59,1.59,0,0,1-.3-.93v-.07a1.58,1.58,0,0,1,.79-1.37l0-2.7,1.66-1,0,3.75a1.58,1.58,0,0,1,.79,1.37v.07a1.53,1.53,0,0,1-.31.93L25,23.13Z"/></svg>