<svg id="Warstwa_1" data-name="Warstwa 1" xmlns="http://www.w3.org/2000/svg" viewBox="0 0 45 45"><defs><style>.cls-1{fill:#b56565;}</style></defs><title>studies_big</title><path class="cls-1" d="M41.48,19.27l-6,3.8v-1.4l-1.2-.51L23.6,16.59l-.88,2.05,9.28,4,1.26.54h0v1.33L22.59,31.27,11.8,23.69V33c0,.67.79,1.84,3,3a18,18,0,0,0,7.86,1.76A17.08,17.08,0,0,0,30.21,36l1,2a19.36,19.36,0,0,1-8.53,2,20.34,20.34,0,0,1-8.86-2c-2.7-1.36-4.25-3.17-4.25-5V22.12l-5.68-4,18.89-12Z"/><path class="cls-1" d="M31.48,35.66l1.19-4.36h0a2.13,2.13,0,0,1-.4-1.25v-.09a2.12,2.12,0,0,1,1.06-1.84l0-3.62,2.23-1.41,0,5a2.12,2.12,0,0,1,1.06,1.84V30a2.05,2.05,0,0,1-.42,1.25l1.19,4.38Z"/></svg>