<svg id="Warstwa_1" data-name="Warstwa 1" xmlns="http://www.w3.org/2000/svg" viewBox="0 0 120 120"><defs><style>.cls-1{fill:#b56565;}</style></defs><title>people</title><path class="cls-1" d="M109.63,36.2a20.71,20.71,0,0,1-5.46,14,19.55,19.55,0,0,1-2.68,2.46h0a19.51,19.51,0,0,1-3.53,2.22A20.83,20.83,0,0,1,88.79,57q-.67,0-1.35,0a28.89,28.89,0,0,0,.77-6.5c0-.22,0-.43,0-.66a24.16,24.16,0,0,0-.29-3.42A27.76,27.76,0,0,0,71.26,25,20.82,20.82,0,0,1,109.63,36.2Z"/><path class="cls-1" d="M81.36,50.48a1.56,1.56,0,0,1,0,.27v0A19.65,19.65,0,0,1,81,54.43c-.06.34-.14.67-.22,1a20.44,20.44,0,0,1-1.09,3.26,19.81,19.81,0,0,1-1.62,3,20.09,20.09,0,0,1-2.13,2.79A20.83,20.83,0,0,1,73.21,67a19.86,19.86,0,0,1-3.52,2.2A20.61,20.61,0,0,1,64.28,71a21.33,21.33,0,0,1-3.69.34h-.06a21.06,21.06,0,0,1-9.17-2.13A19.05,19.05,0,0,1,47.84,67h0a20.47,20.47,0,0,1-2.7-2.46A20.84,20.84,0,0,1,60.53,29.65c.45,0,.91,0,1.36,0a19.58,19.58,0,0,1,3.39.5,22.92,22.92,0,0,1,3.27,1.06A20.78,20.78,0,0,1,81.36,50.48Z"/><path class="cls-1" d="M86.32,93.13V104H34.71V93.33a25.78,25.78,0,0,1,9.81-20.24,27.44,27.44,0,0,0,11.64,4.75,24.19,24.19,0,0,0,3.42.34c.32,0,.63,0,.95,0,.83,0,1.67,0,2.49-.11a27.42,27.42,0,0,0,13.5-5A25.71,25.71,0,0,1,86,89.7,24.18,24.18,0,0,1,86.32,93.13Z"/><path class="cls-1" d="M114.61,79V89.7H93A32.49,32.49,0,0,0,81.62,68.41a27.48,27.48,0,0,0,3.29-4.78,28.19,28.19,0,0,0,3.88.27,27.58,27.58,0,0,0,16-5.1A25.8,25.8,0,0,1,114.61,79Z"/><path class="cls-1" d="M31.78,51.41c0,.22,0,.43,0,.66a28.89,28.89,0,0,0,.77,6.5q-.67,0-1.35,0A20.83,20.83,0,0,1,22,56.5a19.51,19.51,0,0,1-3.53-2.22h0a19.55,19.55,0,0,1-2.68-2.46A20.83,20.83,0,1,1,48.71,26.55,27.76,27.76,0,0,0,32.06,48,24.16,24.16,0,0,0,31.78,51.41Z"/><path class="cls-1" d="M38.36,70A32.49,32.49,0,0,0,27,91.29H5.37V80.63a25.8,25.8,0,0,1,9.81-20.24,27.58,27.58,0,0,0,16,5.1,28.19,28.19,0,0,0,3.88-.27A27.48,27.48,0,0,0,38.36,70Z"/></svg>