<svg id="Warstwa_1" data-name="Warstwa 1" xmlns="http://www.w3.org/2000/svg" viewBox="0 0 28 28"><defs><style>.cls-1{fill:#8e8e93;}</style></defs><title>info</title><path class="cls-1" d="M26,16.84h0L21.36,3.08a.62.62,0,0,0-.59-.43H7.24a.62.62,0,0,0-.59.43L2,16.84A.61.61,0,0,0,2,17v7.8a.52.52,0,0,0,.52.52h23a.52.52,0,0,0,.52-.52V17A.5.5,0,0,0,26,16.84ZM7.68,3.9H20.32l4.22,12.62h-6A.52.52,0,0,0,18,17v2.22H10V17a.52.52,0,0,0-.52-.52h-6Z"/><rect class="cls-1" x="6.18" y="13.59" width="15.48" height="1.26"/><rect class="cls-1" x="7.73" y="8.2" width="12.38" height="1.26"/><rect class="cls-1" x="6.95" y="10.94" width="13.93" height="1.26"/><rect class="cls-1" x="8.5" y="5.47" width="10.84" height="1.26"/></svg>