<svg id="Warstwa_1" data-name="Warstwa 1" xmlns="http://www.w3.org/2000/svg" viewBox="0 0 28 28"><defs><style>.cls-1{fill:#8e8e93;}</style></defs><title>settings</title><path class="cls-1" d="M24.81,11.66l-1.65-.15a9.44,9.44,0,0,0-.92-2.21L23.31,8a1.29,1.29,0,0,0-.09-1.75L21.74,4.78A1.31,1.31,0,0,0,20,4.7L18.71,5.76a9.82,9.82,0,0,0-2.21-.92l-.15-1.66A1.31,1.31,0,0,0,15,2H13a1.29,1.29,0,0,0-1.29,1.19L11.5,4.84a9.57,9.57,0,0,0-2.2.92L8,4.7a1.31,1.31,0,0,0-1.76.08L4.78,6.25A1.3,1.3,0,0,0,4.69,8L5.77,9.3a8.83,8.83,0,0,0-.92,2.21l-1.66.15A1.3,1.3,0,0,0,2,13V15a1.29,1.29,0,0,0,1.19,1.29l1.65.15a9.69,9.69,0,0,0,.92,2.22L4.69,20a1.3,1.3,0,0,0,.08,1.75l1.48,1.48A1.3,1.3,0,0,0,8,23.3l1.28-1.06a9.4,9.4,0,0,0,2.21.92l.15,1.66A1.3,1.3,0,0,0,13,26H15a1.32,1.32,0,0,0,1.3-1.18l.15-1.66a9.64,9.64,0,0,0,2.21-.92L20,23.31a1.3,1.3,0,0,0,1.76-.09l1.47-1.48A1.29,1.29,0,0,0,23.31,20l-1.06-1.28a9.61,9.61,0,0,0,.92-2.21l1.65-.15A1.31,1.31,0,0,0,26,15V13A1.3,1.3,0,0,0,24.81,11.66ZM14,20.35A6.34,6.34,0,1,1,20.34,14,6.35,6.35,0,0,1,14,20.35Z"/></svg>