<svg id="Warstwa_1" data-name="Warstwa 1" xmlns="http://www.w3.org/2000/svg" viewBox="0 0 25 25"><defs><style>.cls-1{fill:#b56565;}</style></defs><title>book</title><path class="cls-1" d="M22.73,4.84V3.55l-.53-.12a14.92,14.92,0,0,0-3.93-.27,8.14,8.14,0,0,0-5.74,2.46A8.14,8.14,0,0,0,6.79,3.15a14.92,14.92,0,0,0-3.93.27l-.53.12V4.84H0V22.22H25V4.84Zm-21.35,16V6.21h.93L2.22,19.64,3,19.57c.05,0,4.46-.39,7.46,1.27ZM11.75,20a11.5,11.5,0,0,0-5.1-1.73,20,20,0,0,0-2.49-.15H3.61L3.69,4.67C5.24,4.43,9.76,4,11.83,7ZM13.21,7c2.07-2.93,6.6-2.52,8.14-2.28l.08,13.49a20.16,20.16,0,0,0-3,.15A11.5,11.5,0,0,0,13.29,20ZM23.62,20.85h-9c3-1.66,7.4-1.28,7.46-1.27l.76.07L22.74,6.21h.89Z"/></svg>