<svg id="Warstwa_1" data-name="Warstwa 1" xmlns="http://www.w3.org/2000/svg" viewBox="0 0 25 25"><defs><style>.cls-1{fill:#b56565;}</style></defs><title>calendar</title><rect class="cls-1" x="17.22" y="1" width="2.59" height="6.35" rx="1.25" ry="1.25"/><rect class="cls-1" x="5.19" y="1" width="2.59" height="6.35" rx="1.25" ry="1.25"/><path class="cls-1" d="M21.2,4.24h-.83V5.71A2.09,2.09,0,0,1,18.52,8a2.09,2.09,0,0,1-1.85-2.27V4.24H8.33V5.71A2.09,2.09,0,0,1,6.48,8,2.09,2.09,0,0,1,4.63,5.71V4.24H3.8C2.26,4.24,1,5.78,1,7.67V21.55C1,23.45,2.26,25,3.8,25H21.2c1.54,0,2.8-1.54,2.8-3.44V7.67C24,5.78,22.74,4.24,21.2,4.24ZM22.6,21.55a1.58,1.58,0,0,1-1.39,1.71H3.8A1.58,1.58,0,0,1,2.4,21.55v-11H22.6Z"/><rect class="cls-1" x="4.62" y="12.08" width="2.93" height="2"/><rect class="cls-1" x="8.9" y="12.08" width="2.93" height="2"/><rect class="cls-1" x="13.17" y="12.08" width="2.93" height="2"/><rect class="cls-1" x="17.45" y="12.08" width="2.93" height="2"/><rect class="cls-1" x="4.62" y="15.74" width="2.93" height="1.91"/><rect class="cls-1" x="8.9" y="15.74" width="2.93" height="1.91"/><rect class="cls-1" x="13.17" y="15.74" width="2.93" height="1.91"/><rect class="cls-1" x="17.45" y="15.74" width="2.93" height="1.91"/><rect class="cls-1" x="4.62" y="19.3" width="2.93" height="2"/><rect class="cls-1" x="8.9" y="19.3" width="2.93" height="2"/><rect class="cls-1" x="13.17" y="19.3" width="2.93" height="2"/><rect class="cls-1" x="17.45" y="19.3" width="2.93" height="2"/></svg>