<svg id="Warstwa_1" data-name="Warstwa 1" xmlns="http://www.w3.org/2000/svg" viewBox="0 0 25 25"><defs><style>.cls-1{fill:#b56565;}</style></defs><title>human</title><path class="cls-1" d="M12,12.72a5.44,5.44,0,1,1,5.44-5.44A5.45,5.45,0,0,1,12,12.72Zm0-9.43a4,4,0,1,0,4,4A4,4,0,0,0,12,3.28Z"/><path class="cls-1" d="M16.17,14.36c1.53,1.39,2.29,4,2.37,8.18H5.46c.07-3.22.59-5.55,1.6-7.09a5.28,5.28,0,0,1,.86-1,6.88,6.88,0,0,0,8.24-.07m-.12-1.86a5.43,5.43,0,0,1-8,.07,6.41,6.41,0,0,0-2.17,2.08C4.6,16.56,4,19.38,4,23.27V24H20v-.73c0-5.83-1.22-9.27-3.95-10.77Z"/></svg>