<svg id="Warstwa_1" data-name="Warstwa 1" xmlns="http://www.w3.org/2000/svg" viewBox="0 0 25 25"><defs><style>.cls-1{fill:#696668;}</style></defs><title>book</title><path class="cls-1" d="M21.91,5.58V4.39l-.49-.11A13.72,13.72,0,0,0,17.8,4a7.49,7.49,0,0,0-5.28,2.26A7.49,7.49,0,0,0,7.24,4a13.73,13.73,0,0,0-3.62.25l-.49.11V5.58H1v16H24v-16ZM2.27,20.3V6.84h.86L3,19.2l.7-.06s4.1-.36,6.86,1.17Zm9.55-.74A10.58,10.58,0,0,0,7.12,18a18.41,18.41,0,0,0-2.29-.14H4.32L4.4,5.42c1.42-.22,5.58-.6,7.49,2.1Zm1.34-12c1.91-2.69,6.07-2.32,7.49-2.1l.08,12.41a18.55,18.55,0,0,0-2.8.13,10.58,10.58,0,0,0-4.69,1.6ZM22.73,20.3h-8.3c2.75-1.52,6.81-1.18,6.86-1.17l.7.06L21.92,6.84h.82Z"/></svg>