<svg id="Warstwa_1" data-name="Warstwa 1" xmlns="http://www.w3.org/2000/svg" viewBox="0 0 25 25"><defs><style>.cls-1{fill:#696668;}</style></defs><title>human</title><path class="cls-1" d="M12.55,12.37a6.09,6.09,0,1,1,6.09-6.09A6.1,6.1,0,0,1,12.55,12.37Zm0-10.55A4.46,4.46,0,1,0,17,6.28,4.47,4.47,0,0,0,12.55,1.82Z"/><path class="cls-1" d="M17.21,14.21c1.71,1.55,2.56,4.51,2.65,9.16H5.23c.08-3.6.66-6.21,1.79-7.94a5.91,5.91,0,0,1,1-1.14,7.7,7.7,0,0,0,9.23-.08m-.13-2.08a6.08,6.08,0,0,1-9,.08,7.17,7.17,0,0,0-2.43,2.33c-1.39,2.14-2.07,5.29-2.07,9.64V25H21.5v-.81c0-6.52-1.36-10.38-4.42-12.05Z"/></svg>