<svg id="Warstwa_1" data-name="Warstwa 1" xmlns="http://www.w3.org/2000/svg" viewBox="0 0 25 25"><defs><style>.cls-1{fill:#696668;}</style></defs><title>location</title><path class="cls-1" d="M12.56,25l-.48-.42c-.33-.28-8-7-8-15.84A8.34,8.34,0,0,1,6.73,2.33,8.63,8.63,0,0,1,12.54.19a8.63,8.63,0,0,1,5.8,2.14A8.34,8.34,0,0,1,21,8.74c0,3.39-1.35,7.09-4,11a33.45,33.45,0,0,1-4,4.83Zm0-23.41A6.81,6.81,0,0,0,5.47,8.74c0,7,5.39,12.72,7,14.34,1.64-1.74,7.09-8,7.09-14.34C19.6,5.3,17.39,1.59,12.54,1.59Z"/><circle class="cls-1" cx="12.54" cy="7.75" r="3.91"/></svg>