<svg id="Warstwa_1" data-name="Warstwa 1" xmlns="http://www.w3.org/2000/svg" viewBox="0 0 20 20"><defs><style>.cls-1{fill:#b56566;}.cls-2{fill:#fbd4d6;}</style></defs><title>book</title><rect class="cls-1" width="20" height="20" rx="6.11" ry="6.11"/><path class="cls-2" d="M16.18,5.2V4.42l-.32-.07a9,9,0,0,0-2.37-.16A4.92,4.92,0,0,0,10,5.67,4.92,4.92,0,0,0,6.55,4.18a9,9,0,0,0-2.38.16l-.32.07V5.2H2.45V15.7h15.1V5.2ZM3.28,14.87V6h.56l-.05,8.11.46,0a9.2,9.2,0,0,1,4.5.77Zm6.27-.49a7,7,0,0,0-3.08-1A12.08,12.08,0,0,0,5,13.24H4.63L4.68,5.1C5.61,5,8.34,4.7,9.6,6.48Zm.88-7.91c1.25-1.77,4-1.52,4.92-1.38l.05,8.15a12.18,12.18,0,0,0-1.84.09,7,7,0,0,0-3.08,1Zm6.29,8.39H11.27a9.25,9.25,0,0,1,4.5-.77l.46,0,0-8.11h.54Z"/></svg>