<svg id="Warstwa_1" data-name="Warstwa 1" xmlns="http://www.w3.org/2000/svg" viewBox="0 0 50 57"><defs><style>.cls-1{fill:#b26364;}.cls-2{fill:#fbd4d6;}</style></defs><title>book_focus</title><path class="cls-1" d="M49.83,15.16V34.49A15.16,15.16,0,0,1,34.67,49.66H32.49c-5.87,0-7,6.86-7,6.86s0,.48-.46.48-.46-.48-.46-.48-1.16-6.86-7-6.86H15.33A15.16,15.16,0,0,1,.17,34.49V15.16A15.16,15.16,0,0,1,15.33,0H34.67A15.16,15.16,0,0,1,49.83,15.16Z"/><path class="cls-2" d="M40.22,12.93V11l-.8-.18a22.4,22.4,0,0,0-5.9-.41c-3.73.25-6.68,1.52-8.61,3.69C23,11.92,20,10.65,16.28,10.4a22.4,22.4,0,0,0-5.91.41l-.8.18v1.94H6.09V39H43.63V12.93ZM8.16,37V15h1.4L9.43,35.16l1.13-.11c.08,0,6.7-.58,11.2,1.91Zm15.58-1.21a17.27,17.27,0,0,0-7.66-2.6,30,30,0,0,0-3.73-.23h-.84l.13-20.26c2.32-.36,9.1-1,12.22,3.43Zm2.19-19.66c3.11-4.4,9.9-3.78,12.22-3.42l.12,20.26a30.28,30.28,0,0,0-4.57.22,17.27,17.27,0,0,0-7.66,2.6ZM41.57,37H28c4.49-2.49,11.12-1.92,11.19-1.91l1.13.11L40.23,15h1.34Z"/></svg>