<svg id="Warstwa_1" data-name="Warstwa 1" xmlns="http://www.w3.org/2000/svg" viewBox="0 0 35 35"><defs><style>.cls-1{fill:#b56566;}.cls-2{fill:#fbd4d6;}</style></defs><title>book</title><rect class="cls-1" width="35" height="35" rx="10.69" ry="10.69"/><path class="cls-2" d="M28.31,9.1V7.74l-.56-.13a15.76,15.76,0,0,0-4.16-.29,8.61,8.61,0,0,0-6.06,2.6,8.6,8.6,0,0,0-6.06-2.6,15.77,15.77,0,0,0-4.16.29l-.56.13V9.1H4.29V27.47H30.71V9.1ZM5.74,26V10.56h1L6.64,24.75l.8-.07c.06,0,4.71-.41,7.88,1.35Zm11-.85a12.16,12.16,0,0,0-5.39-1.83,21.15,21.15,0,0,0-2.63-.16H8.1L8.19,8.92c1.63-.25,6.41-.69,8.6,2.41Zm1.54-13.83c2.19-3.09,7-2.66,8.6-2.41l.09,14.26a21.31,21.31,0,0,0-3.22.15,12.15,12.15,0,0,0-5.39,1.83ZM29.26,26H19.73c3.16-1.75,7.82-1.35,7.88-1.35l.8.07-.09-14.19h.94Z"/></svg>