<svg id="Warstwa_1" data-name="Warstwa 1" xmlns="http://www.w3.org/2000/svg" viewBox="0 0 50 57"><defs><style>.cls-1{fill:#b26364;}.cls-2{fill:#fbd4d6;}</style></defs><title>building_focused</title><path class="cls-1" d="M49.83,15.16V34.49A15.16,15.16,0,0,1,34.67,49.66H32.49c-5.87,0-7,6.86-7,6.86s0,.48-.46.48-.46-.48-.46-.48-1.16-6.86-7-6.86H15.33A15.16,15.16,0,0,1,.17,34.49V15.16A15.16,15.16,0,0,1,15.33,0H34.67A15.16,15.16,0,0,1,49.83,15.16Z"/><rect class="cls-2" x="8.77" y="37.8" width="33.27" height="2.59"/><polygon class="cls-2" points="38.53 34.11 38.53 36.7 12.29 36.7 12.29 34.11 13.84 34.11 13.84 18.1 17.5 18.1 17.5 34.11 20.34 34.11 20.34 18.1 24 18.1 24 34.11 27.17 34.11 27.17 18.1 30.84 18.1 30.84 34.11 33.87 34.11 33.87 18.1 37.53 18.1 37.53 34.11 38.53 34.11"/><polygon class="cls-2" points="42.73 15.29 38.53 15.29 38.53 17.32 12.29 17.32 12.29 15.29 8.09 15.29 25.41 6.34 42.73 15.29"/></svg>