<svg id="Warstwa_1" data-name="Warstwa 1" xmlns="http://www.w3.org/2000/svg" viewBox="0 0 35 35"><defs><style>.cls-1{fill:#b56566;}.cls-2{fill:#fbd4d6;}</style></defs><title>building</title><rect class="cls-1" width="35" height="35" rx="10.69" ry="10.69"/><rect class="cls-2" x="6.16" y="26.55" width="23.37" height="1.82"/><polygon class="cls-2" points="27.06 23.96 27.06 25.78 8.63 25.78 8.63 23.96 9.72 23.96 9.72 12.71 12.3 12.71 12.3 23.96 14.29 23.96 14.29 12.71 16.86 12.71 16.86 23.96 19.09 23.96 19.09 12.71 21.66 12.71 21.66 23.96 23.79 23.96 23.79 12.71 26.36 12.71 26.36 23.96 27.06 23.96"/><polygon class="cls-2" points="30.01 10.74 27.06 10.74 27.06 12.16 8.63 12.16 8.63 10.74 5.68 10.74 17.85 4.46 30.01 10.74"/></svg>