<svg id="Warstwa_1" data-name="Warstwa 1" xmlns="http://www.w3.org/2000/svg" viewBox="0 0 20 20"><defs><style>.cls-1{fill:#b56566;}.cls-2{fill:#fbd4d6;}</style></defs><title>building</title><rect class="cls-1" width="20" height="20" rx="6.11" ry="6.11"/><rect class="cls-2" x="3.52" y="15.17" width="13.36" height="1.04"/><polygon class="cls-2" points="15.46 13.69 15.46 14.73 4.93 14.73 4.93 13.69 5.55 13.69 5.55 7.27 7.03 7.27 7.03 13.69 8.16 13.69 8.16 7.27 9.63 7.27 9.63 13.69 10.91 13.69 10.91 7.27 12.38 7.27 12.38 13.69 13.6 13.69 13.6 7.27 15.07 7.27 15.07 13.69 15.46 13.69"/><polygon class="cls-2" points="17.15 6.14 15.46 6.14 15.46 6.95 4.93 6.95 4.93 6.14 3.25 6.14 10.2 2.55 17.15 6.14"/></svg>