<svg id="Warstwa_1" data-name="Warstwa 1" xmlns="http://www.w3.org/2000/svg" viewBox="0 0 35 35"><defs><style>.cls-1{fill:#b56566;}.cls-2{fill:#fbd4d6;}</style></defs><title>cultery</title><rect class="cls-1" width="35" height="35" rx="10.69" ry="10.69"/><path class="cls-2" d="M17,5.43v8.63a2.22,2.22,0,0,1-2.22,2.22h-.09c.15,3.17.51,11.27.51,12.5,0,1.53-.76,1.53-1.44,1.53s-1.44,0-1.44-1.53c0-1.19.37-9.32.51-12.5h-.09a2.22,2.22,0,0,1-2.22-2.22V5.43a.73.73,0,0,1,.73-.73.73.73,0,0,1,.73.73v6.41H13V5.43a.73.73,0,0,1,1.46,0v6.41h1.05V5.43a.73.73,0,0,1,1.46,0Z"/><path class="cls-2" d="M24.47,28.7c0,1.53-.76,1.53-1.44,1.53s-1.44,0-1.44-1.53c0-1.33.36-9.06.38-9.67s-.13-.7-.48-1.12-1.22-.52-1-2.31.74-7.26,1-9a2.28,2.28,0,0,1,2.35-1.95l0,.42S24.47,27.17,24.47,28.7Z"/></svg>