<svg id="Warstwa_1" data-name="Warstwa 1" xmlns="http://www.w3.org/2000/svg" viewBox="0 0 50 57"><defs><style>.cls-1{fill:#b26364;}.cls-2{fill:#fbd4d6;}</style></defs><title>cultery_focused</title><path class="cls-1" d="M49.83,15.16V34.49A15.16,15.16,0,0,1,34.67,49.66H32.49c-5.87,0-7,6.86-7,6.86s0,.48-.46.48-.46-.48-.46-.48-1.16-6.86-7-6.86H15.33A15.16,15.16,0,0,1,.17,34.49V15.16A15.16,15.16,0,0,1,15.33,0H34.67A15.16,15.16,0,0,1,49.83,15.16Z"/><path class="cls-2" d="M24.32,7.71V20a3.15,3.15,0,0,1-3.16,3.16H21c.21,4.51.73,16,.73,17.75,0,2.17-1.08,2.17-2,2.17s-2,0-2-2.17c0-1.7.52-13.24.73-17.75h-.13A3.15,3.15,0,0,1,15.13,20V7.71a1,1,0,0,1,1-1,1,1,0,0,1,1,1v9.11h1.49V7.71a1,1,0,0,1,2.07,0v9.11h1.49V7.71a1,1,0,0,1,2.07,0Z"/><path class="cls-2" d="M34.94,40.76c0,2.17-1.08,2.17-2,2.17s-2,0-2-2.17c0-1.88.51-12.87.54-13.73s-.18-1-.69-1.59S29,24.7,29.29,22.17s1.05-10.31,1.43-12.72a3.23,3.23,0,0,1,3.34-2.76l.06.59S34.94,38.6,34.94,40.76Z"/></svg>