<svg id="Warstwa_1" data-name="Warstwa 1" xmlns="http://www.w3.org/2000/svg" viewBox="0 0 20 20"><defs><style>.cls-1{fill:#b56566;}.cls-2{fill:#fbd4d6;}</style></defs><title>cultery</title><rect class="cls-1" width="20" height="20" rx="6.11" ry="6.11"/><path class="cls-2" d="M9.71,3.1V8A1.27,1.27,0,0,1,8.44,9.3H8.39c.08,1.81.29,6.44.29,7.14,0,.87-.43.87-.82.87S7,17.3,7,16.44c0-.68.21-5.32.29-7.14H7.28A1.27,1.27,0,0,1,6,8V3.1a.42.42,0,0,1,.42-.42.42.42,0,0,1,.42.42V6.77h.6V3.1a.42.42,0,0,1,.83,0V6.77h.6V3.1a.42.42,0,0,1,.83,0Z"/><path class="cls-2" d="M14,16.4c0,.87-.43.87-.82.87s-.82,0-.82-.87.2-5.18.22-5.52-.07-.4-.28-.64-.7-.3-.57-1.32.42-4.15.58-5.12a1.3,1.3,0,0,1,1.35-1.11l0,.24S14,15.53,14,16.4Z"/></svg>