<svg id="Warstwa_1" data-name="Warstwa 1" xmlns="http://www.w3.org/2000/svg" viewBox="0 0 35 35"><defs><style>.cls-1{fill:#b56566;}.cls-2{fill:#fbd4d6;}</style></defs><title>trolley</title><rect class="cls-1" width="35" height="35" rx="10.69" ry="10.69"/><path class="cls-2" d="M11.85,26.11a2.3,2.3,0,1,0,2.3,2.3A2.3,2.3,0,0,0,11.85,26.11Zm0,3.27a1,1,0,1,1,1-1A1,1,0,0,1,11.85,29.37Z"/><path class="cls-2" d="M22.8,30.64A2.23,2.23,0,1,1,25,28.41,2.24,2.24,0,0,1,22.8,30.64Zm0-3.27a1,1,0,1,0,1,1A1,1,0,0,0,22.8,27.38Z"/><path class="cls-2" d="M29.58,10.62a.67.67,0,0,0-.49-.27L9,9l-.11-.65A2.78,2.78,0,0,0,6.21,6H3.79a.67.67,0,1,0,0,1.34H6.21c1,0,1.3,1.1,1.33,1.25l2.3,13.06L8.8,23c-.86,1-.64,1.71-.55,1.92.23.52.78.78,1.64.78H25a.67.67,0,0,0,0-1.34H9.89a1.76,1.76,0,0,1-.37,0,1.9,1.9,0,0,1,.29-.46l0,0,1-1.34H26.37A.67.67,0,0,0,27,22l2.67-10.78A.67.67,0,0,0,29.58,10.62Zm-1.95,3.29-5.8-.24V11.19l6.37.44Zm-13,7.21H11.11l-.43-2.42h4Zm0-3.75H10.45l-.5-2.86,4.72.2Zm1.34,0v-2.6l4.5.19v2.42Zm4.5-3.75L16,13.43V10.78l4.5.31Zm-5.83-2.93v2.69l-5-.21-.5-2.86Zm1.34,8h4.5v2.42H16Zm9.84,2.42h-4V18.71h4.61Zm.93-3.75H21.84V15l5.47.23Z"/></svg>