<svg id="Warstwa_1" data-name="Warstwa 1" xmlns="http://www.w3.org/2000/svg" viewBox="0 0 20 20"><defs><style>.cls-1{fill:#b56566;}.cls-2{fill:#fbd4d6;}</style></defs><title>trolley</title><rect class="cls-1" width="20" height="20" rx="6.11" ry="6.11"/><path class="cls-2" d="M6.77,14.92a1.32,1.32,0,1,0,1.32,1.32A1.32,1.32,0,0,0,6.77,14.92Zm0,1.87a.55.55,0,1,1,.55-.55A.55.55,0,0,1,6.77,16.79Z"/><path class="cls-2" d="M13,17.51a1.28,1.28,0,1,1,1.28-1.28A1.28,1.28,0,0,1,13,17.51Zm0-1.87a.59.59,0,1,0,.59.59A.59.59,0,0,0,13,15.64Z"/><path class="cls-2" d="M16.9,6.07a.38.38,0,0,0-.28-.16l-11.5-.8-.06-.37A1.59,1.59,0,0,0,3.55,3.41H2.17a.38.38,0,0,0,0,.76H3.55c.59,0,.74.63.76.71l1.32,7.46-.6.77c-.49.56-.36,1-.31,1.09.13.3.45.44.93.44h8.64a.38.38,0,0,0,0-.76H5.65l-.21,0a1.08,1.08,0,0,1,.17-.26l0,0,.59-.77h8.85a.38.38,0,0,0,.37-.29L17,6.39A.38.38,0,0,0,16.9,6.07ZM15.79,8l-3.31-.14V6.39l3.64.25ZM8.38,12.07h-2l-.24-1.38H8.38Zm0-2.14H6L5.69,8.3l2.7.11Zm.76,0V8.44l2.57.11V9.93Zm2.57-2.14L9.15,7.68V6.16l2.57.18ZM8.38,6.11V7.65L5.55,7.53,5.26,5.89Zm.76,4.58h2.57v1.38H9.15Zm5.63,1.38H12.48V10.69h2.64Zm.53-2.14H12.48V8.58l3.13.13Z"/></svg>