<svg id="Warstwa_1" data-name="Warstwa 1" xmlns="http://www.w3.org/2000/svg" viewBox="0 0 50 57"><defs><style>.cls-1{fill:#b26364;}.cls-2{fill:#fbd4d6;}</style></defs><title>trolley_focused</title><path class="cls-1" d="M49.83,15.16V34.49A15.16,15.16,0,0,1,34.67,49.66H32.49c-5.87,0-7,6.86-7,6.86s0,.48-.46.48-.46-.48-.46-.48-1.16-6.86-7-6.86H15.33A15.16,15.16,0,0,1,.17,34.49V15.16A15.16,15.16,0,0,1,15.33,0H34.67A15.16,15.16,0,0,1,49.83,15.16Z"/><path class="cls-2" d="M17,37.16a3.28,3.28,0,1,0,3.28,3.28A3.28,3.28,0,0,0,17,37.16Zm0,4.65a1.37,1.37,0,1,1,1.37-1.37A1.38,1.38,0,0,1,17,41.81Z"/><path class="cls-2" d="M32.64,43.61a3.18,3.18,0,1,1,3.18-3.18A3.18,3.18,0,0,1,32.64,43.61Zm0-4.65a1.47,1.47,0,1,0,1.47,1.47A1.47,1.47,0,0,0,32.64,39Z"/><path class="cls-2" d="M42.29,15.12a1,1,0,0,0-.7-.39L13,12.75l-.16-.92A4,4,0,0,0,9,8.5H5.59a1,1,0,0,0,0,1.9H9c1.47,0,1.85,1.57,1.9,1.78L14.2,30.77l-1.48,1.92c-1.23,1.4-.91,2.44-.78,2.73.33.74,1.11,1.11,2.33,1.11H35.79a1,1,0,1,0,0-1.9H14.27a2.5,2.5,0,0,1-.53,0,2.7,2.7,0,0,1,.42-.65l0-.05L15.68,32h22a1,1,0,0,0,.92-.72l3.8-15.34A1,1,0,0,0,42.29,15.12Zm-2.77,4.69-8.26-.34V15.92l9.06.63ZM21.06,30.07H16l-.61-3.44h5.66Zm0-5.34h-6l-.72-4.07,6.72.28Zm1.9,0V21l6.4.27v3.44Zm6.4-5.34L23,19.12V15.34l6.4.44Zm-8.3-4.17V19L14,18.75l-.72-4.07ZM23,26.63h6.4v3.44H23Zm14,3.44H31.26V26.63h6.57Zm1.32-5.34h-7V21.37l7.79.33Z"/></svg>