<svg id="Warstwa_1" data-name="Warstwa 1" xmlns="http://www.w3.org/2000/svg" viewBox="0 0 50 57"><defs><style>.cls-1{fill:#b26364;}.cls-2{fill:#fbd4d6;}</style></defs><title>xero_focused</title><path class="cls-1" d="M49.83,15.16V34.49A15.16,15.16,0,0,1,34.67,49.66H32.49c-5.87,0-7,6.86-7,6.86s0,.48-.46.48-.46-.48-.46-.48-1.16-6.86-7-6.86H15.33A15.16,15.16,0,0,1,.17,34.49V15.16A15.16,15.16,0,0,1,15.33,0H34.67A15.16,15.16,0,0,1,49.83,15.16Z"/><path class="cls-2" d="M42.27,25.45l-8,3.28V22.65L43,19.08a.94.94,0,1,0-.72-1.74l-8,3.28v-7a.94.94,0,0,0-.94-.94h-4L26.4,8.94a1,1,0,0,0-.75-.37H12.89a.94.94,0,0,0-.94.94V22a.45.45,0,0,1,0,.12v8.37a.36.36,0,0,0,0,0,.32.32,0,0,0,0,0V39a.94.94,0,0,0,.94.94H13v.41a.94.94,0,0,0,.94.94h1.35a.94.94,0,0,0,.94-.94V39.9H30.14v.41a.94.94,0,0,0,.94.94h1.35a.94.94,0,0,0,.94-.94V39.9a.94.94,0,0,0,.92-.94V30.77L43,27.19a.94.94,0,1,0-.72-1.74ZM13.83,29.56V23.08H32.41v6.48Zm18.58-8.49H13.83V14.6H32.41ZM13.83,10.46H25.19l1.74,2.25H13.83Zm0,27.56V31.54H32.41V38Z"/><path class="cls-2" d="M25.92,26H20.31a.94.94,0,1,1,0-1.89h5.61a.94.94,0,1,1,0,1.89Z"/><path class="cls-2" d="M25.92,34.68H20.31a.94.94,0,1,1,0-1.89h5.61a.94.94,0,1,1,0,1.89Z"/></svg>