<svg id="Warstwa_1" data-name="Warstwa 1" xmlns="http://www.w3.org/2000/svg" viewBox="0 0 35 35"><defs><style>.cls-1{fill:#b56566;}.cls-2{fill:#fbd4d6;}</style></defs><title>xero</title><rect class="cls-1" width="35" height="35" rx="10.69" ry="10.69"/><path class="cls-2" d="M29.69,17.88l-5.6,2.3V15.91l6.11-2.51a.66.66,0,1,0-.5-1.23l-5.6,2.3V9.59a.66.66,0,0,0-.66-.66H20.6L18.55,6.28A.66.66,0,0,0,18,6h-9a.66.66,0,0,0-.66.66v8.78a.32.32,0,0,1,0,.08v5.88a.25.25,0,0,0,0,0,.22.22,0,0,0,0,0v5.88a.66.66,0,0,0,.66.66h.1v.28a.66.66,0,0,0,.66.66h.95a.66.66,0,0,0,.66-.66V28h9.75v.28a.66.66,0,0,0,.66.66h.95a.66.66,0,0,0,.66-.66V28a.66.66,0,0,0,.64-.66V21.61l6.11-2.51a.66.66,0,1,0-.5-1.23Zm-20,2.89V16.21h13v4.55Zm13-6h-13V10.25h13Zm-13-7.46h8l1.22,1.58H9.71Zm0,19.36V22.15h13v4.55Z"/><path class="cls-2" d="M18.21,18.29H14.27a.66.66,0,0,1,0-1.32h3.94a.66.66,0,1,1,0,1.32Z"/><path class="cls-2" d="M18.21,24.36H14.27a.66.66,0,0,1,0-1.32h3.94a.66.66,0,1,1,0,1.32Z"/></svg>