<svg id="Warstwa_1" data-name="Warstwa 1" xmlns="http://www.w3.org/2000/svg" viewBox="0 0 20 20"><defs><style>.cls-1{fill:#b56566;}.cls-2{fill:#fbd4d6;}</style></defs><title>xero</title><rect class="cls-1" width="20" height="20" rx="6.11" ry="6.11"/><path class="cls-2" d="M17,10.22l-3.2,1.32V9.09l3.49-1.43A.38.38,0,1,0,17,7l-3.2,1.32V5.48a.38.38,0,0,0-.38-.38H11.77L10.6,3.59a.38.38,0,0,0-.3-.15H5.17a.38.38,0,0,0-.38.38v5a.12.12,0,0,0,0,0,.12.12,0,0,0,0,0v6.75a.38.38,0,0,0,.38.38h.06v.16a.38.38,0,0,0,.38.38h.54a.38.38,0,0,0,.38-.38V16H12.1v.16a.38.38,0,0,0,.38.38H13a.38.38,0,0,0,.38-.38V16a.38.38,0,0,0,.37-.38V12.35l3.49-1.43a.38.38,0,1,0-.29-.7ZM5.55,11.87V9.26H13v2.6ZM13,8.46H5.55V5.86H13ZM5.55,4.2h4.56l.7.9H5.55Zm0,11.06v-2.6H13v2.6Z"/><path class="cls-2" d="M10.41,10.45H8.15a.38.38,0,1,1,0-.76h2.25a.38.38,0,1,1,0,.76Z"/><path class="cls-2" d="M10.41,13.92H8.15a.38.38,0,1,1,0-.76h2.25a.38.38,0,1,1,0,.76Z"/></svg>