<svg id="Warstwa_1" data-name="Warstwa 1" xmlns="http://www.w3.org/2000/svg" viewBox="0 0 70 70"><defs><style>.cls-1{fill:#b56565;}</style></defs><title>książka</title><path class="cls-1" d="M62.67,13.67V10.15l-1.44-.33a40.61,40.61,0,0,0-10.7-.73,22.18,22.18,0,0,0-15.62,6.68A22.18,22.18,0,0,0,19.29,9.08a40.63,40.63,0,0,0-10.7.73l-1.44.33v3.52H.9V61h68V13.67ZM4.52,57.25V17.41H7.06L6.84,54l2.08-.19c.15,0,12.14-1.06,20.3,3.48Zm28.26-2.19a31.24,31.24,0,0,0-13.89-4.73,54.48,54.48,0,0,0-6.79-.42H10.6l.23-36.73C15,12.54,27.35,11.4,33,19.43Zm4-35.71c5.64-8,18-6.85,22.16-6.25l.23,36.73a54.89,54.89,0,0,0-8.33.4A31.24,31.24,0,0,0,36.91,55ZM65.1,57.25H40.55c8.14-4.5,20.16-3.48,20.3-3.48l2.08.19-.23-36.57h2.42Z"/></svg>