<svg id="Warstwa_1" data-name="Warstwa 1" xmlns="http://www.w3.org/2000/svg" viewBox="0 0 70 70"><defs><style>.cls-1{fill:#b56565;}</style></defs><title>budynek</title><rect class="cls-1" x="1.77" y="63.82" width="66.45" height="5.18"/><polygon class="cls-1" points="61.19 56.45 61.19 61.63 8.8 61.63 8.8 56.45 11.88 56.45 11.88 24.48 19.2 24.48 19.2 56.45 24.86 56.45 24.86 24.48 32.16 24.48 32.16 56.45 38.51 56.45 38.51 24.48 45.81 24.48 45.81 56.45 51.88 56.45 51.88 24.48 59.2 24.48 59.2 56.45 61.19 56.45"/><polygon class="cls-1" points="69.56 18.87 61.19 18.87 61.19 22.91 8.8 22.91 8.8 18.87 0.4 18.87 34.99 1 69.56 18.87"/></svg>