<svg id="Warstwa_1" data-name="Warstwa 1" xmlns="http://www.w3.org/2000/svg" viewBox="0 0 70 70"><defs><style>.cls-1{fill:#b56565;}</style></defs><title>cultery</title><path class="cls-1" d="M33.2,2V25.54a6.07,6.07,0,0,1-6.07,6.07h-.25c.41,8.69,1.41,30.87,1.41,34.22C28.29,70,26.22,70,24.35,70s-3.95,0-3.95-4.17c0-3.26,1-25.5,1.41-34.22h-.25a6.07,6.07,0,0,1-6-6.07V2a2,2,0,0,1,4,0V19.54h2.87V2a2,2,0,0,1,4,0V19.54h2.87V2a2,2,0,0,1,4,0Z"/><path class="cls-1" d="M53.73,65.69c0,4.17-2.08,4.17-3.95,4.17s-3.95,0-3.95-4.17c0-3.65,1-24.77,1-26.46s-.34-1.92-1.32-3.06-3.24-1.51-2.71-6.3,2-19.87,2.76-24.5A6.23,6.23,0,0,1,52,.06V1.2S53.73,61.51,53.73,65.69Z"/></svg>