<svg id="Warstwa_1" data-name="Warstwa 1" xmlns="http://www.w3.org/2000/svg" viewBox="0 0 70 70"><defs><style>.cls-1{fill:#b56565;}</style></defs><title>trolley</title><path class="cls-1" d="M22.75,56.53A6.23,6.23,0,1,0,29,62.76h0A6.24,6.24,0,0,0,22.75,56.53Zm0,8.37a2.12,2.12,0,1,1,2.12-2.12A2.12,2.12,0,0,1,22.75,64.9Z"/><path class="cls-1" d="M50.79,69A6.23,6.23,0,1,1,57,62.76,6.23,6.23,0,0,1,50.79,69Zm0-8.37a2.12,2.12,0,1,0,2.12,2.12h0a2.14,2.14,0,0,0-2.12-2.08Z"/><path class="cls-1" d="M68.43,17a2,2,0,0,0-1.57-.84L15.68,12.64l-.33-2A6.58,6.58,0,0,0,8.91,5H2.05a2.05,2.05,0,0,0,0,4.1H8.91a2.55,2.55,0,0,1,2.38,2.28h0l5.89,33.86L14.7,48.62c-.65.75-2.44,3.06-1.45,5.26a4.42,4.42,0,0,0,4.52,2.2H56.45a2.05,2.05,0,1,0,0-4.1H17.33a4.56,4.56,0,0,1,.47-.67v-.12l2.55-3.3H59.83a2,2,0,0,0,2-1.55l6.83-27.49A2,2,0,0,0,68.43,17Zm-5.5,8.29-14.24-.59V19l15.53,1.08Zm-2.2,8.86H48.65V28.82l13.24.55Zm-27-5.89,10.82.45v5.52H33.75ZM29.55,28v6.15H19.47l-1.16-6.62ZM20.2,38.29h9.35v5.5H21.16ZM44.57,24.54l-10.82-.45V18l10.82.75Zm-15-6.81v6.21l-12-.57-1.18-6.62Zm4.2,20.56H44.57v5.5H33.75Zm24.59,5.5H48.65v-5.5h11Z"/></svg>