<svg id="Warstwa_1" data-name="Warstwa 1" xmlns="http://www.w3.org/2000/svg" viewBox="0 0 70 70"><defs><style>.cls-1{fill:#b56565;}</style></defs><title>xero</title><path class="cls-1" d="M66.09,36.43l-16.94,7V30.5l18.46-7.59a2.08,2.08,0,1,0-1.52-3.7l-16.94,7V11.38A2.08,2.08,0,0,0,47.07,9.3H38.59L32.37,1.4A2.08,2.08,0,0,0,30.79.63h-27A2.08,2.08,0,0,0,1.69,2.71V29.15a1,1,0,0,1,0,.25V47.13h0V64.91A2.08,2.08,0,0,0,3.77,67h.29v.94A2.08,2.08,0,0,0,6.14,70H9a2.08,2.08,0,0,0,2.08-2.08v-.85H40.34v.85A2.08,2.08,0,0,0,42.41,70h2.87a2.08,2.08,0,0,0,2.08-2.08V67a2.08,2.08,0,0,0,2-2.08V47.74l18.46-7.59a2.08,2.08,0,1,0-1.52-3.7ZM5.68,45.16V31.4h39.5V45.16Zm39.5-18H5.68V13.37h39.5ZM5.68,4.58H29.82l3.7,4.78H5.68Zm0,58.54V49.36h39.5V63.12Z"/><path class="cls-1" d="M31.44,37.67h-12a2.08,2.08,0,0,1,0-4h12a2.08,2.08,0,0,1,0,4Z"/><path class="cls-1" d="M31.44,56.05h-12a2.08,2.08,0,0,1,0-4h12a2.08,2.08,0,0,1,0,4Z"/></svg>